<?xml version="1.0" standalone="no"?>
<!DOCTYPE svg PUBLIC "-//W3C//DTD SVG 20010904//EN"
 "http://www.w3.org/TR/2001/REC-SVG-20010904/DTD/svg10.dtd">
<svg version="1.0" xmlns="http://www.w3.org/2000/svg"
 width="640.000000pt" height="640.000000pt" viewBox="0 0 640.000000 640.000000"
 preserveAspectRatio="xMidYMid meet">
<metadata>
Created by potrace 1.14, written by Peter Selinger 2001-2017
</metadata>
<g transform="translate(0.000000,640.000000) scale(0.100000,-0.100000)"
fill="#000000" stroke="none">
<path d="M2927 6045 c-112 -31 -221 -105 -256 -174 -68 -134 -253 -805 -561
-2042 -89 -355 -165 -650 -169 -657 -5 -8 -48 -7 -161 4 -624 58 -1159 175
-1470 320 l-95 45 -17 -22 c-10 -11 -18 -37 -18 -55 0 -58 40 -222 87 -358
112 -321 266 -573 483 -786 231 -228 521 -379 879 -456 241 -52 575 -88 939
-101 162 -5 182 -8 177 -22 -15 -39 -16 -106 -2 -125 14 -19 18 -19 73 -6 116
26 177 13 292 -62 82 -54 143 -57 247 -14 88 37 152 43 233 22 72 -19 134 -9
152 24 15 27 12 95 -5 137 -8 19 -15 37 -15 39 0 2 24 4 53 4 63 0 277 24 407
46 541 91 1024 337 1424 723 333 322 555 710 592 1029 6 55 5 59 -21 76 -26
17 -27 17 -123 -32 -242 -124 -570 -221 -1032 -306 -243 -46 -552 -89 -560
-79 -4 4 -76 215 -160 468 -198 596 -355 1057 -470 1375 -51 140 -116 327
-145 415 -64 195 -83 239 -141 326 -81 122 -200 210 -329 244 -72 18 -221 18
-288 0z m329 -139 c95 -45 174 -123 227 -224 21 -39 65 -153 98 -253 33 -99
100 -294 150 -432 50 -139 95 -263 100 -277 4 -14 77 -230 162 -480 86 -250
155 -456 154 -456 -3 -2 -1781 559 -1786 562 -14 11 270 1058 365 1346 37 111
51 142 76 163 77 65 179 97 296 91 69 -3 94 -10 158 -40z m939 -2264 c-6 -6
-1865 580 -1865 588 0 4 421 -126 935 -289 514 -162 933 -297 930 -299z
m-1699 412 c98 -31 183 -58 187 -61 10 -6 -17 -22 -195 -116 l-127 -66 -46 87
-46 87 12 60 c14 68 17 77 28 70 5 -2 89 -30 187 -61z m487 -153 l249 -78
-172 -90 -171 -91 -82 162 c-98 193 -91 176 -80 176 4 0 120 -36 256 -79z
m-234 -236 c46 -88 79 -161 74 -162 -4 -1 -120 33 -257 76 l-248 79 148 77
c82 43 158 83 169 90 11 7 23 10 26 7 4 -4 43 -79 88 -167z m-449 3 c0 -6 -88
19 -99 28 -2 2 2 31 9 65 l13 62 38 -74 c21 -41 38 -77 39 -81z m1453 -11 c9
-3 -313 -172 -327 -172 -8 0 -175 310 -176 326 0 5 253 -73 503 -154z m-473
-160 c45 -87 81 -160 78 -162 -5 -5 -498 149 -498 156 0 10 325 177 332 170 3
-3 43 -77 88 -164z m780 64 c149 -47 186 -62 188 -77 2 -15 -28 -35 -147 -96
l-149 -78 -50 93 c-58 107 -122 234 -122 241 0 6 24 -2 280 -83z m-1093 -226
c331 -105 592 -191 580 -193 -16 -2 -1199 362 -1375 423 -7 3 -11 9 -8 14 3 5
50 -6 103 -23 54 -18 369 -117 700 -221z m847 -15 c42 -81 76 -150 76 -153 0
-5 -132 35 -399 121 l-113 37 168 87 c148 77 170 85 181 72 6 -9 46 -83 87
-164z m2240 108 c-40 -137 -121 -306 -211 -439 -54 -81 -165 -223 -183 -234
-5 -3 -33 12 -63 34 -29 22 -78 52 -108 66 -166 75 -297 50 -483 -94 -202
-156 -312 -155 -511 5 -84 67 -144 99 -227 120 -122 32 -237 -5 -393 -125
-218 -167 -342 -162 -570 24 -31 25 -84 60 -118 77 -53 28 -73 32 -137 33 -94
0 -147 -23 -279 -124 -139 -105 -187 -126 -291 -126 -104 0 -153 20 -285 120
-150 113 -252 148 -367 125 -73 -14 -174 -64 -240 -119 -117 -97 -211 -136
-306 -129 -76 5 -149 42 -254 125 -189 150 -310 169 -462 73 l-47 -30 -54 112
c-50 104 -134 337 -150 416 l-7 32 54 -21 c342 -138 900 -245 1593 -303 623
-53 1537 -45 2220 19 740 70 1441 217 1810 379 44 19 81 35 82 35 1 1 -5 -23
-13 -51z m-3331 -156 l439 -139 -99 -6 c-153 -10 -1002 17 -1003 32 -1 3 16
72 37 152 l37 146 76 -23 c41 -13 272 -86 513 -162z m1565 -7 l32 -65 -23 -5
c-31 -6 -361 -34 -365 -30 -4 4 300 164 313 165 6 0 25 -29 43 -65z m-3453
-524 c22 -10 81 -49 130 -86 50 -37 124 -84 165 -104 71 -34 81 -36 175 -36
94 0 104 2 175 36 41 20 116 67 165 104 112 84 162 107 240 108 74 1 150 -31
238 -102 258 -203 470 -202 717 4 30 25 82 59 116 76 56 28 64 29 108 19 64
-14 119 -43 191 -100 135 -107 238 -150 355 -150 122 0 209 38 374 164 161
123 240 120 411 -18 39 -31 108 -76 154 -99 83 -41 87 -42 185 -42 96 0 105 2
180 38 43 20 106 59 140 86 95 74 141 100 206 117 54 14 66 14 120 0 58 -15
159 -71 175 -97 5 -8 -12 -31 -48 -65 -51 -50 -58 -53 -89 -46 -107 23 -205
-10 -343 -118 -44 -34 -107 -76 -140 -93 -55 -29 -68 -32 -155 -32 -87 0 -100
3 -155 32 -33 17 -95 59 -138 92 -43 33 -104 73 -135 88 -52 25 -67 28 -162
28 -127 0 -167 -16 -305 -120 -130 -97 -174 -117 -268 -123 -74 -4 -82 -3
-150 31 -40 20 -106 64 -147 97 -208 168 -329 167 -550 -2 -127 -97 -178 -121
-276 -126 -73 -4 -88 -2 -145 24 -35 16 -100 56 -144 89 -152 115 -215 140
-339 133 -101 -5 -157 -30 -281 -123 -129 -96 -174 -117 -267 -123 -70 -4 -83
-2 -140 25 -35 17 -103 61 -153 98 -116 88 -181 117 -270 124 l-70 6 -47 69
c-27 38 -48 73 -48 77 0 4 28 22 63 39 69 35 106 35 182 1z m1180 -354 c28
-14 84 -51 125 -83 41 -31 107 -72 146 -91 187 -89 326 -63 544 101 120 90
152 106 212 106 57 0 124 -33 233 -115 254 -192 413 -188 682 14 183 137 280
137 463 0 220 -165 364 -194 549 -109 90 41 47 9 -61 -46 -512 -259 -1034
-332 -2103 -295 -871 30 -1230 86 -1565 243 -110 52 -281 165 -360 239 -72 67
-26 45 84 -40 44 -34 111 -77 150 -96 179 -88 317 -64 526 93 52 40 118 81
145 92 68 28 161 22 230 -13z m3285 30 c0 -6 -182 -132 -225 -156 -24 -13 -30
-15 -15 -4 13 10 48 38 78 62 57 46 162 109 162 98z m-1653 -724 c12 -26 19
-51 14 -56 -5 -5 -37 -1 -72 8 -82 22 -155 15 -257 -25 -42 -16 -88 -30 -102
-30 -14 0 -56 20 -93 45 -93 59 -150 77 -237 73 -39 -2 -70 0 -70 4 0 36 0 36
403 33 l392 -3 22 -49z"/>
<path d="M1819 2261 c-37 -37 -38 -79 -3 -120 21 -25 34 -31 64 -31 58 0 95
35 95 90 0 84 -95 121 -156 61z"/>
<path d="M2989 2261 c-37 -37 -38 -79 -3 -120 21 -25 34 -31 64 -31 58 0 95
35 95 90 0 84 -95 121 -156 61z"/>
<path d="M4129 2261 c-20 -20 -29 -39 -29 -61 0 -46 47 -90 95 -90 27 0 44 8
67 30 26 27 30 36 25 68 -13 80 -101 109 -158 53z"/>
<path d="M2844 1345 c-22 -9 -80 -47 -130 -85 -203 -157 -302 -210 -431 -230
-84 -13 -167 -2 -219 31 -18 11 -59 49 -90 85 -31 35 -61 61 -67 57 -6 -4 -8
-41 -4 -102 9 -156 71 -315 160 -410 86 -90 231 -153 399 -170 232 -23 408 30
543 164 149 148 212 350 150 483 -26 57 -103 140 -153 166 -46 24 -110 28
-158 11z"/>
<path d="M3421 1319 c-76 -22 -146 -90 -199 -191 -22 -42 -27 -66 -27 -123 0
-60 5 -81 37 -147 71 -150 180 -266 314 -335 124 -63 229 -81 364 -63 284 38
600 232 699 428 47 94 80 262 51 262 -5 0 -24 -24 -40 -54 -46 -81 -104 -142
-166 -172 -73 -36 -208 -44 -302 -20 -139 37 -218 86 -406 253 -165 147 -241
185 -325 162z"/>
</g>
</svg>
